<svg height="1000" width="937.5" xmlns="http://www.w3.org/2000/svg"><path d="M0 500.288q0 -95.16 37.088 -182.024t99.796 -149.572 149.572 -99.796 182.024 -37.088 182.024 37.088 149.572 99.796 99.796 149.572 37.088 182.024 -37.088 182.024 -99.796 149.572 -149.572 99.796 -182.024 37.088 -182.024 -37.088 -149.572 -99.796 -99.796 -149.572 -37.088 -182.024zm117.12 0q0 95.648 47.092 176.412t128.1 127.856 176.168 47.092q95.648 0 176.412 -47.092t127.856 -127.856 47.092 -176.412q0 -95.16 -47.092 -176.168t-127.856 -128.1 -176.412 -47.092q-71.248 0 -136.396 27.816t-112.24 74.908 -74.908 112.24 -27.816 136.396zm292.8 0v-224.48q0 -23.912 17.08 -41.236t41.48 -17.324 41.48 17.324 17.08 41.236v200.08l141.52 141.52q17.08 17.08 17.08 41.48t-17.08 41.48 -40.992 17.08q-24.4 0 -41.48 -17.08l-159.088 -158.6q-1.464 -1.464 -3.66 -4.636t-3.172 -4.148q-.976 -1.464 -2.44 -4.392l-1.464 -2.928t-1.464 -3.416q-.488 -.488 -1.952 -5.368 -1.464 -4.392 -1.464 -4.88 -1.464 -5.856 -1.464 -11.712z"/></svg>