<?xml version="1.0" encoding="utf-8"?>
<!-- Generator: Adobe Illustrator 16.0.0, SVG Export Plug-In . SVG Version: 6.00 Build 0)  -->
<!DOCTYPE svg PUBLIC "-//W3C//DTD SVG 1.1//EN" "http://www.w3.org/Graphics/SVG/1.1/DTD/svg11.dtd">
<svg version="1.1" id="Layer_1" xmlns="http://www.w3.org/2000/svg" xmlns:xlink="http://www.w3.org/1999/xlink" x="0px" y="0px"
	 width="128px" height="128px" viewBox="0 0 128 128" enable-background="new 0 0 128 128" xml:space="preserve">
<g>
	<g>
		<path fill="#FFFFFF" d="M96,0H16C7.164,0,0,7.164,0,16v96c0,8.836,7.164,16,16,16h44v-8H16c-4.406,0-8-3.586-8-8V16
			c0-4.414,3.594-8,8-8h80c4.414,0,8,3.586,8,8v47.031l8-8V16C112,7.164,104.836,0,96,0z"/>
	</g>
</g>
<path fill="#FFFFFF" d="M88,32H24v-8h64V32z"/>
<path fill="#FFFFFF" d="M88,48H24v-8h64V48z"/>
<path fill="#FFFFFF" d="M88,64H24v-8h64V64z"/>
<path fill="#FFFFFF" d="M56,80H24v-8h32V80z"/>
<g>
	<path fill="#FFFFFF" d="M119.477,90.964c-0.232-0.905-0.996-1.578-1.922-1.7l-5.009-0.654c-0.106-0.293-0.185-0.487-0.194-0.51
		l-0.084-0.205c0,0-0.078-0.177-0.201-0.446l3.076-4.005c0.569-0.741,0.633-1.754,0.157-2.56c-0.054-0.091-1.319-2.211-4.143-5.034
		c-2.821-2.822-4.945-4.089-5.033-4.142c-0.808-0.476-1.819-0.414-2.56,0.157l-4.004,3.078c-0.27-0.123-0.444-0.202-0.444-0.202
		c-0.023-0.013-0.048-0.021-0.073-0.03l-0.186-0.075c0,0-0.18-0.069-0.459-0.175l-0.654-5.008c-0.122-0.928-0.794-1.688-1.698-1.921
		c-0.101-0.023-2.495-0.628-6.487-0.628c-3.99,0-6.389,0.604-6.488,0.63c-0.904,0.233-1.577,0.995-1.699,1.921l-0.654,5.011
		c-0.287,0.106-0.48,0.181-0.501,0.188l-0.151,0.063c-0.021,0.01-0.039,0.018-0.063,0.025c0,0-0.176,0.078-0.445,0.203l-4.006-3.078
		c-0.74-0.57-1.754-0.631-2.559-0.156c-0.088,0.055-2.21,1.318-5.035,4.143c-2.82,2.822-4.088,4.944-4.139,5.032
		c-0.476,0.806-0.415,1.819,0.155,2.562l3.08,4.003c-0.125,0.269-0.203,0.444-0.203,0.444l0.012,0.006
		c-0.043,0.08-0.084,0.164-0.115,0.25c0,0-0.068,0.182-0.176,0.461l-5.006,0.654c-0.926,0.121-1.687,0.793-1.92,1.699
		c-0.025,0.1-0.63,2.494-0.63,6.486c0,3.994,0.605,6.388,0.631,6.488c0.234,0.904,0.996,1.576,1.922,1.699l5.007,0.654
		c0.107,0.289,0.183,0.48,0.189,0.499l0.063,0.153c0.009,0.021,0.019,0.041,0.026,0.063c0,0,0.078,0.178,0.203,0.445l-3.079,4.005
		c-0.571,0.741-0.632,1.756-0.157,2.56c0.053,0.088,1.319,2.209,4.141,5.032c2.823,2.824,4.948,4.089,5.035,4.144
		c0.803,0.475,1.817,0.412,2.56-0.157l4.002-3.078c0.271,0.123,0.446,0.203,0.446,0.203c0.021,0.008,0.043,0.018,0.065,0.026
		l0.191,0.078c0,0,0.18,0.068,0.459,0.174l0.655,5.01c0.121,0.927,0.793,1.686,1.7,1.92c0.099,0.025,2.494,0.63,6.486,0.63
		s6.389-0.604,6.486-0.63c0.904-0.234,1.579-0.993,1.7-1.92l0.655-5.01c0.289-0.107,0.482-0.184,0.506-0.191l0.208-0.087
		c0,0,0.176-0.078,0.446-0.203l4.004,3.078c0.742,0.569,1.757,0.634,2.56,0.153c0.091-0.051,2.21-1.317,5.034-4.14
		c2.82-2.823,4.088-4.944,4.141-5.032c0.477-0.804,0.414-1.817-0.154-2.56l-3.08-4.005c0.125-0.27,0.203-0.446,0.203-0.446
		c0.011-0.021,0.018-0.041,0.026-0.063l0.077-0.191c0,0,0.07-0.182,0.176-0.46l5.008-0.653c0.928-0.123,1.687-0.796,1.92-1.701
		c0.026-0.101,0.631-2.494,0.631-6.487C120.105,93.459,119.501,91.064,119.477,90.964z M115.293,101.316l-4.727,0.617
		c-0.865,0.113-1.59,0.707-1.871,1.532c-0.271,0.794-0.579,1.595-0.579,1.595l-0.048,0.121c-0.069,0.151-0.387,0.862-0.725,1.545
		c-0.384,0.782-0.292,1.719,0.237,2.408l2.905,3.779c-0.563,0.73-1.407,1.738-2.565,2.898c-1.162,1.158-2.171,2.004-2.901,2.566
		l-3.777-2.904c-0.693-0.531-1.624-0.625-2.408-0.238c-0.747,0.369-1.523,0.717-1.523,0.717s0.004,0,0.004-0.001l-0.103,0.041
		c0,0-0.825,0.317-1.64,0.596c-0.826,0.282-1.418,1.009-1.531,1.87l-0.618,4.727c-0.914,0.119-2.224,0.233-3.862,0.233
		c-1.644,0-2.953-0.114-3.867-0.233l-0.616-4.727c-0.115-0.865-0.707-1.588-1.534-1.87c-0.792-0.271-1.594-0.579-1.594-0.579
		l-0.122-0.05c-0.149-0.067-0.861-0.385-1.544-0.722c-0.78-0.385-1.717-0.295-2.408,0.236l-3.779,2.904
		c-0.73-0.561-1.74-1.404-2.9-2.564c-1.159-1.162-2.004-2.17-2.567-2.899l2.907-3.78c0.529-0.693,0.624-1.626,0.236-2.408
		c-0.34-0.688-0.662-1.404-0.726-1.549l-0.03-0.076c-0.009-0.015-0.32-0.828-0.594-1.634c-0.279-0.827-1.006-1.421-1.871-1.536
		l-4.728-0.615c-0.117-0.914-0.233-2.226-0.233-3.863c0-1.643,0.116-2.953,0.234-3.867l4.727-0.617
		c0.865-0.113,1.594-0.709,1.87-1.535c0.272-0.805,0.586-1.619,0.593-1.632c0.01-0.018,0.014-0.034,0.02-0.05l0,0
		c0,0,0.359-0.807,0.738-1.575c0.389-0.782,0.293-1.718-0.237-2.411l-2.905-3.776c0.563-0.731,1.406-1.738,2.566-2.899
		c1.162-1.16,2.169-2.006,2.9-2.568l3.779,2.906c0.691,0.53,1.624,0.621,2.408,0.237c0.689-0.34,1.404-0.662,1.551-0.726l0.072-0.03
		c0.014-0.007,0.83-0.32,1.638-0.595c0.825-0.282,1.417-1.008,1.532-1.869l0.617-4.729c0.912-0.116,2.225-0.231,3.865-0.231
		c1.64,0,2.949,0.115,3.863,0.231l0.618,4.729c0.112,0.861,0.705,1.589,1.532,1.869c0.797,0.271,1.603,0.58,1.603,0.58l0,0
		l0.115,0.047c0.161,0.072,0.866,0.391,1.545,0.725c0.781,0.384,1.717,0.292,2.406-0.238l3.778-2.906
		c0.729,0.563,1.737,1.408,2.898,2.567c1.159,1.16,2.005,2.169,2.568,2.9l-2.904,3.78c-0.533,0.689-0.623,1.621-0.239,2.405
		c0.369,0.747,0.716,1.526,0.716,1.526V89.7l0.041,0.098c0.006,0.015,0.32,0.832,0.596,1.64c0.281,0.823,1.005,1.418,1.869,1.531
		l4.728,0.617c0.119,0.914,0.233,2.225,0.233,3.866C115.525,99.092,115.412,100.402,115.293,101.316z"/>
	<path fill="#FFFFFF" d="M89.559,82.865c-8.043,0-14.586,6.543-14.586,14.587c0,8.041,6.543,14.585,14.586,14.585
		c8.041,0,14.584-6.544,14.584-14.585C104.143,89.408,97.6,82.865,89.559,82.865z M89.559,107.459
		c-5.519,0-10.007-4.49-10.007-10.007c0-5.519,4.488-10.007,10.007-10.007c5.52,0,10.006,4.488,10.006,10.007
		C99.564,102.969,95.076,107.459,89.559,107.459z"/>
</g>
</svg>
