<?xml version="1.0" encoding="utf-8"?><!-- Generated by IcoMoon.io --><!DOCTYPE svg PUBLIC "-//W3C//DTD SVG 1.1//EN" "http://www.w3.org/Graphics/SVG/1.1/DTD/svg11.dtd"><svg version="1.1" xmlns="http://www.w3.org/2000/svg" xmlns:xlink="http://www.w3.org/1999/xlink" width="20" height="20" viewBox="0 0 20 20" data-tags="shuffle"><g fill="#444" transform="scale(0.01953125 0.01953125)"><path d="M772.762 342.733h47.104v146.534l204.134-206.029-204.186-206.080v122.214h-47.104c-189.133 0-295.731 140.186-389.837 263.782-84.582 111.206-157.696 207.309-275.763 207.309h-107.11v143.309h107.162c189.133 0 295.731-140.083 389.837-263.782 84.582-111.258 157.696-207.258 275.763-207.258zM276.992 433.050c8.090-10.394 16.179-21.094 24.422-31.898 19.968-26.317 41.165-54.016 64.102-81.715-67.686-63.181-149.248-109.773-258.355-109.773h-107.162v143.309h107.162c67.942 0 120.934 31.898 169.83 80.077zM819.814 680.653h-47.104c-72.038 0-127.334-35.891-178.739-88.986-5.12 6.707-10.291 13.517-15.514 20.326-22.579 29.696-46.848 61.491-73.677 93.082 69.427 67.789 153.6 118.989 267.878 118.989h47.104v122.778l204.237-206.080-204.186-206.080v145.971z" /></g></svg>